<svg width="5" height="5" viewBox="0 0 5 5" fill="none" xmlns="http://www.w3.org/2000/svg">
<path d="M4.09971 2.45079C4.02912 2.84 3.8447 3.19954 3.56977 3.48394C3.29484 3.76835 2.94176 3.96484 2.55516 4.04857C2.16856 4.1323 1.76581 4.09951 1.39785 3.95434C1.02988 3.80918 0.713231 3.55816 0.487929 3.23303C0.262627 2.9079 0.138797 2.52327 0.132097 2.12776C0.125398 1.73226 0.236129 1.34365 0.45029 1.01107C0.664451 0.678499 0.972422 0.4169 1.33526 0.259357C1.69809 0.101813 2.0995 0.0554018 2.48871 0.12599C3.01063 0.220646 3.47357 0.518757 3.77569 0.954741C4.07781 1.39073 4.19436 1.92887 4.09971 2.45079Z" fill="#1AD079"/>
</svg>
